<svg width="172" height="44" viewBox="0 0 172 44" fill="none" xmlns="http://www.w3.org/2000/svg">
<path d="M24.126 14.4172L20 16.1273L24.126 17.8374V30.29V32L28.2488 30.29V16.1273L24.126 14.4172Z" fill="white"/>
<path d="M15.8738 19.3172L15.8863 19.3235L19.9998 21.0273V12.7101L15.8738 11L11.751 12.7101L15.8738 14.4171V19.3172Z" fill="white"/>
<path d="M19.9876 24.5037L15.874 22.7998V26.8729V28.583L20 26.8729V24.5099L19.9876 24.5037Z" fill="white"/>
<path d="M49.9704 27.4468H47.0158V20.1768H44.1348V17.5532H52.8514V20.1768H49.9704V27.4468ZM47.31 27.1587H49.6762V19.8887H52.5572V17.8475H44.429V19.8887H47.31V27.1587Z" fill="white"/>
<path d="M68.1633 27.4468H65.2087V23.7996H62.0825V27.4468H59.1279V17.5532H62.0825V21.1453H65.2087V17.5532H68.1633V27.4468ZM65.503 27.1587H67.8691V17.8475H65.503V21.4396H61.7944V17.8475H59.4283V27.1587H61.7944V23.5114H65.503V27.1587Z" fill="white"/>
<path d="M83.409 27.4468H75.3359V17.5532H83.3354V20.1094H78.2476V21.2679H82.8573V23.6586H78.2476V24.8907H83.4028V27.4468H83.409ZM75.6302 27.1587H83.1147V25.1849H77.9595V23.3705H82.5692V21.5622H77.9595V19.8151H83.0473V17.8413H75.6302V27.1526V27.1587Z" fill="white"/>
<path d="M98.3105 17.7004H100.971V21.2925H104.385V17.7004H107.046V27.2997H104.385V23.6525H100.971V27.2997H98.3105V17.7004Z" fill="white"/>
<path d="M119.207 27.4958C118.466 27.4958 117.779 27.3671 117.148 27.1035C116.516 26.8461 115.971 26.4905 115.517 26.0431C115.057 25.5956 114.702 25.0684 114.438 24.4677C114.181 23.8669 114.046 23.2172 114.046 22.5306V22.5061C114.046 21.8196 114.175 21.1759 114.438 20.563C114.702 19.9561 115.063 19.4228 115.529 18.9692C115.995 18.5156 116.547 18.16 117.178 17.8965C117.81 17.639 118.496 17.5042 119.238 17.5042C119.98 17.5042 120.666 17.6329 121.298 17.8965C121.929 18.16 122.474 18.5094 122.928 18.9569C123.388 19.4044 123.743 19.9316 124.007 20.5323C124.264 21.133 124.399 21.7828 124.399 22.4693V22.4939C124.399 23.1804 124.271 23.824 124.007 24.437C123.749 25.0439 123.382 25.5772 122.916 26.0308C122.45 26.4844 121.898 26.8399 121.273 27.1035C120.642 27.3671 119.955 27.4958 119.213 27.4958H119.207ZM119.226 25.0929C119.593 25.0929 119.924 25.0255 120.231 24.8845C120.531 24.7497 120.789 24.5596 121.003 24.3267C121.218 24.0938 121.377 23.824 121.5 23.5114C121.622 23.1988 121.678 22.8739 121.678 22.5245V22.5C121.678 22.1506 121.616 21.8257 121.5 21.5131C121.383 21.2005 121.212 20.9307 120.991 20.6917C120.77 20.4526 120.507 20.2626 120.206 20.1216C119.906 19.9806 119.569 19.9071 119.201 19.9071C118.833 19.9071 118.502 19.9745 118.202 20.1155C117.902 20.2503 117.644 20.4404 117.43 20.6733C117.215 20.9062 117.05 21.1759 116.933 21.4886C116.817 21.8012 116.761 22.1261 116.761 22.4755V22.5C116.761 22.8494 116.823 23.1743 116.939 23.4869C117.056 23.7995 117.227 24.0754 117.442 24.3083C117.656 24.5474 117.914 24.7374 118.22 24.8784C118.521 25.0194 118.858 25.0929 119.226 25.0929Z" fill="white"/>
<path d="M131.4 17.7004H135.513C136.114 17.7004 136.665 17.7739 137.156 17.9272C137.652 18.0804 138.069 18.295 138.418 18.5831C138.768 18.8712 139.031 19.2267 139.221 19.6435C139.411 20.0665 139.503 20.5385 139.503 21.0718V21.0963C139.503 21.6664 139.399 22.1629 139.197 22.592C138.995 23.0211 138.706 23.3828 138.339 23.677C137.971 23.9712 137.536 24.1919 137.027 24.3329C136.518 24.48 135.966 24.5536 135.372 24.5536H134.054V27.2997H131.394V17.7004H131.4ZM135.323 22.4755C135.801 22.4755 136.169 22.3652 136.438 22.1384C136.708 21.9116 136.843 21.6051 136.843 21.2189V21.1883C136.843 20.7776 136.708 20.4588 136.438 20.2443C136.169 20.0297 135.789 19.9194 135.304 19.9194H134.054V22.4694H135.317L135.323 22.4755Z" fill="white"/>
<path d="M146.222 17.7003H153.933V19.9622H148.845V21.415H153.455V23.5114H148.845V25.0316H154V27.2935H146.222V17.6942V17.7003Z" fill="white"/>
</svg>
