<svg width="20" height="20" viewBox="0 0 20 20" fill="none" xmlns="http://www.w3.org/2000/svg">
<path d="M19.4095 10.0348C19.4095 4.83872 15.1958 0.625 9.99966 0.625C4.80356 0.625 0.589844 4.83872 0.589844 10.0348C0.589844 14.448 3.62733 18.1498 7.72625 19.168V12.9105H5.78594V10.0348H7.72625V8.79648C7.72625 5.59338 9.17536 4.10851 12.3201 4.10851C12.9167 4.10851 13.9443 4.2252 14.3658 4.34188V6.9484C14.1437 6.92581 13.7579 6.91452 13.278 6.91452C11.7367 6.91452 11.1401 7.49793 11.1401 9.01856V10.0348H14.2134L13.6845 12.9105H11.1401V19.375C15.798 18.8123 19.4095 14.8451 19.4095 10.0348Z" fill="white"/>
</svg>
