<svg width="18" height="20" viewBox="0 0 18 20" fill="none" xmlns="http://www.w3.org/2000/svg">
<path d="M8.79929 19.8079H8.7934C5.86678 19.7882 3.6169 18.8232 2.10455 16.9401C0.760893 15.263 0.0665072 12.9307 0.0429688 10.008V9.99426C0.0665072 7.06961 0.760893 4.7393 2.10651 3.06218C3.6169 1.17714 5.86875 0.212059 8.7934 0.192444H8.79929H8.80517C11.0492 0.208136 12.9264 0.784829 14.3838 1.90683C15.7549 2.96214 16.72 4.46468 17.2516 6.37522L15.5843 6.84011C14.6819 3.60356 12.3987 1.94998 8.79733 1.92448C6.41994 1.94214 4.62121 2.68949 3.45213 4.14495C2.35955 5.50822 1.79462 7.47761 1.77305 10.0001C1.79462 12.5227 2.35955 14.4921 3.45409 15.8553C4.62317 17.3128 6.4219 18.0601 8.79929 18.0758C10.9433 18.0601 12.3614 17.5599 13.5403 16.4046C14.886 15.0864 14.8624 13.4682 14.4309 12.4835C14.1778 11.9028 13.7169 11.4203 13.0951 11.0535C12.9381 12.1578 12.587 13.0523 12.0456 13.7271C11.3218 14.6274 10.2959 15.1198 8.9974 15.1904C8.01467 15.2433 7.06725 15.0119 6.33363 14.5352C5.46467 13.9723 4.95663 13.1131 4.90171 12.1127C4.84874 11.1398 5.23517 10.2453 5.9884 9.59411C6.70829 8.9723 7.72044 8.60745 8.91698 8.5388C9.79771 8.48976 10.6235 8.52899 11.3846 8.65453C11.2826 8.04842 11.0786 7.56588 10.7726 7.21868C10.3528 6.74007 9.70356 6.49684 8.8444 6.49095C8.83656 6.49095 8.82871 6.49095 8.82086 6.49095C8.1304 6.49095 7.19279 6.68122 6.59648 7.5698L5.16063 6.60668C5.96094 5.41799 7.25948 4.76283 8.82086 4.76283C8.83263 4.76283 8.8444 4.76283 8.85617 4.76283C11.467 4.77853 13.0225 6.37718 13.1774 9.16649C13.2657 9.20376 13.354 9.24299 13.4403 9.28222C14.6584 9.85499 15.549 10.722 16.0178 11.791C16.669 13.2798 16.7298 15.7063 14.7526 17.6423C13.2402 19.1213 11.4062 19.7902 8.80517 19.8079H8.79929ZM9.61921 10.2532C9.4211 10.2532 9.22102 10.2591 9.01506 10.2708C7.51448 10.3552 6.57882 11.0437 6.63179 12.0225C6.68671 13.0484 7.81852 13.525 8.90717 13.4662C9.90756 13.4132 11.21 13.0229 11.4297 10.4336C10.8766 10.314 10.2704 10.2532 9.61921 10.2532Z" fill="white"/>
</svg>
